<svg xmlns="http://www.w3.org/2000/svg" xmlns:xlink="http://www.w3.org/1999/xlink">
    <symbol id="fb" viewBox="0 0 26 26" fill="none">
        <g clip-path="url(#clip0_4_7)">
        <path d="M20.7188 0.25C22.0358 0.25 23.1619 0.717611 24.0972 1.65283C25.0324 2.58805 25.5 3.71419 25.5 5.03125V20.9688C25.5 22.2858 25.0324 23.4119 24.0972 24.3472C23.1619 25.2824 22.0358 25.75 20.7188 25.75H17.5977V15.8721H20.9014L21.3994 12.0205H17.5977V9.56348C17.5977 8.94368 17.7277 8.47884 17.9878 8.16895C18.2479 7.85905 18.7542 7.7041 19.5068 7.7041L21.5322 7.6875V4.25098C20.835 4.15137 19.8499 4.10156 18.5771 4.10156C17.0719 4.10156 15.8683 4.54427 14.9663 5.42969C14.0643 6.3151 13.6133 7.56576 13.6133 9.18164V12.0205H10.293V15.8721H13.6133V25.75H4.78125C3.46419 25.75 2.33805 25.2824 1.40283 24.3472C0.467611 23.4119 0 22.2858 0 20.9688V5.03125C0 3.71419 0.467611 2.58805 1.40283 1.65283C2.33805 0.717611 3.46419 0.25 4.78125 0.25H20.7188Z" fill="white"/>
        </g>
        <defs>
        <clipPath id="clip0_4_7">
        <rect width="25.5" height="25.5" fill="white" transform="translate(0 0.25)"/>
        </clipPath>
        </defs>
    </symbol>
    <symbol id="vk" viewBox="0 0 26 26">
        <g clip-path="url(#clip0_4_3)">
        <path d="M16.6642 0.25H8.83575C1.6915 0.25 0 1.9415 0 9.08575V16.9142C0 24.0585 1.6915 25.75 8.83575 25.75H16.6642C23.8085 25.75 25.5 24.0585 25.5 16.9142V9.08575C25.5 1.9415 23.7904 0.25 16.6642 0.25ZM20.587 18.4432H18.734C18.0327 18.4432 17.816 17.8854 16.5559 16.6082C15.4583 15.5457 14.9728 15.4023 14.7029 15.4023C14.3246 15.4023 14.2163 15.5107 14.2163 16.0324V17.7058C14.2163 18.1563 14.0728 18.4262 12.8849 18.4262C10.9236 18.4262 8.74544 17.2383 7.2165 15.0241C4.913 11.7856 4.28188 9.35563 4.28188 8.852C4.28188 8.58212 4.39025 8.33031 4.91194 8.33031H6.76494C7.23244 8.33031 7.41306 8.546 7.59369 9.04962C8.51062 11.6952 10.0406 14.0168 10.6707 14.0168C10.9044 14.0168 11.0128 13.9084 11.0128 13.3156V10.5786C10.9406 9.31844 10.2744 9.21112 10.2744 8.76169C10.2744 8.54494 10.455 8.32925 10.7419 8.32925H13.6574C14.0537 8.32925 14.1971 8.54494 14.1971 9.01244V12.7025C14.1971 13.0978 14.3778 13.2422 14.4851 13.2422C14.7188 13.2422 14.9175 13.0977 15.3489 12.6664C16.6812 11.1725 17.6343 8.869 17.6343 8.869C17.7607 8.59913 17.9764 8.34731 18.445 8.34731H20.298C20.8558 8.34731 20.9823 8.63419 20.8558 9.0305C20.6221 10.1111 18.3547 13.3134 18.3547 13.3134C18.1571 13.6375 18.0848 13.7809 18.3547 14.1422C18.5523 14.4121 19.2004 14.9699 19.6329 15.4735C20.4244 16.3734 21.0354 17.1289 21.1979 17.6516C21.3786 18.1723 21.1076 18.4421 20.5859 18.4421L20.587 18.4432Z" fill="white"/>
        </g>
        <defs>
        <clipPath id="clip0_4_3">
        <rect width="25.5" height="25.5" fill="white" transform="translate(0 0.25)"/>
        </clipPath>
        </defs>
    </symbol>
    <symbol id="sertif" viewBox="0 0 24 24">
        <path d="M14 2H7C6.46957 2 5.96086 2.21071 5.58579 2.58579C5.21071 2.96086 5 3.46957 5 4V18C5 18.5304 5.21071 19.0391 5.58579 19.4142C5.96086 19.7893 6.46957 20 7 20H10V23L12 22L14 23V20H17C17.5304 20 18.0391 19.7893 18.4142 19.4142C18.7893 19.0391 19 18.5304 19 18V7L14 2ZM14 15V17L12 16L10 17V15L8 14L10 13V11L12 12L14 11V13L16 14L14 15ZM13 8V3.5L17.5 8H13Z" fill="white"/>
    </symbol>
    <symbol id="vk-black" viewBox="0 0 26 26">
        <g clip-path="url(#clip0_55_366)">
        <path d="M16.6642 0.25H8.83575C1.6915 0.25 0 1.9415 0 9.08575V16.9142C0 24.0585 1.6915 25.75 8.83575 25.75H16.6642C23.8085 25.75 25.5 24.0585 25.5 16.9142V9.08575C25.5 1.9415 23.7904 0.25 16.6642 0.25ZM20.587 18.4432H18.734C18.0327 18.4432 17.816 17.8854 16.5559 16.6082C15.4583 15.5457 14.9728 15.4023 14.7029 15.4023C14.3246 15.4023 14.2163 15.5107 14.2163 16.0324V17.7058C14.2163 18.1563 14.0728 18.4262 12.8849 18.4262C10.9236 18.4262 8.74544 17.2383 7.2165 15.0241C4.913 11.7856 4.28188 9.35563 4.28188 8.852C4.28188 8.58212 4.39025 8.33031 4.91194 8.33031H6.76494C7.23244 8.33031 7.41306 8.546 7.59369 9.04962C8.51062 11.6952 10.0406 14.0168 10.6707 14.0168C10.9044 14.0168 11.0128 13.9084 11.0128 13.3156V10.5786C10.9406 9.31844 10.2744 9.21112 10.2744 8.76169C10.2744 8.54494 10.455 8.32925 10.7419 8.32925H13.6574C14.0537 8.32925 14.1971 8.54494 14.1971 9.01244V12.7025C14.1971 13.0978 14.3778 13.2422 14.4851 13.2422C14.7188 13.2422 14.9175 13.0977 15.3489 12.6664C16.6812 11.1725 17.6343 8.869 17.6343 8.869C17.7607 8.59913 17.9764 8.34731 18.445 8.34731H20.298C20.8558 8.34731 20.9823 8.63419 20.8558 9.0305C20.6221 10.1111 18.3547 13.3134 18.3547 13.3134C18.1571 13.6375 18.0848 13.7809 18.3547 14.1422C18.5523 14.4121 19.2004 14.9699 19.6329 15.4735C20.4244 16.3734 21.0354 17.1289 21.1979 17.6516C21.3786 18.1723 21.1076 18.4421 20.5859 18.4421L20.587 18.4432Z" fill="#103A58"/>
        </g>
        <defs>
        <clipPath id="clip0_55_366">
        <rect width="25.5" height="25.5" fill="white" transform="translate(0 0.25)"/>
        </clipPath>
        </defs>
    </symbol>
    <symbol id="fb-black" viewBox="0 0 26 26">
        <g clip-path="url(#clip0_55_370)">
        <path d="M20.7188 0.25C22.0358 0.25 23.1619 0.717611 24.0972 1.65283C25.0324 2.58805 25.5 3.71419 25.5 5.03125V20.9688C25.5 22.2858 25.0324 23.4119 24.0972 24.3472C23.1619 25.2824 22.0358 25.75 20.7188 25.75H17.5977V15.8721H20.9014L21.3994 12.0205H17.5977V9.56348C17.5977 8.94368 17.7277 8.47884 17.9878 8.16895C18.2479 7.85905 18.7542 7.7041 19.5068 7.7041L21.5322 7.6875V4.25098C20.835 4.15137 19.8499 4.10156 18.5771 4.10156C17.0719 4.10156 15.8683 4.54427 14.9663 5.42969C14.0643 6.3151 13.6133 7.56576 13.6133 9.18164V12.0205H10.293V15.8721H13.6133V25.75H4.78125C3.46419 25.75 2.33805 25.2824 1.40283 24.3472C0.467611 23.4119 0 22.2858 0 20.9688V5.03125C0 3.71419 0.467611 2.58805 1.40283 1.65283C2.33805 0.717611 3.46419 0.25 4.78125 0.25H20.7188Z" fill="#103A58"/>
        </g>
        <defs>
        <clipPath id="clip0_55_370">
        <rect width="25.5" height="25.5" fill="white" transform="translate(0 0.25)"/>
        </clipPath>
        </defs>
    </symbol>
</svg>
